<svg width="16" height="16" viewBox="0 0 16 16" fill="none" xmlns="http://www.w3.org/2000/svg">
<g clip-path="url(#clip0_2482_206329)">
<path d="M1.97611 4.20499C1.68024 4.38696 1.5 4.70943 1.5 5.05677L1.5 11.405C1.5 11.773 1.7021 12.1113 2.02616 12.2856L7.52616 15.245C7.822 15.4042 8.178 15.4042 8.47383 15.245L13.9738 12.2856C14.2979 12.1113 14.5 11.773 14.5 11.405L14.5 5.05677C14.5 4.70942 14.3198 4.38696 14.0239 4.20499L8.52389 0.822217C8.20258 0.624599 7.79741 0.624599 7.47611 0.822218L1.97611 4.20499Z" stroke="#8B8B8B" stroke-width="0.75" stroke-miterlimit="10"/>
<path d="M11.897 7.35718L10.8751 7.23128C10.8103 6.98331 10.7111 6.74297 10.5815 6.5217L11.2145 5.70911C11.2336 5.6824 11.245 5.65188 11.2412 5.62136C11.2412 5.59084 11.2259 5.56032 11.203 5.53743L10.4709 4.80877C10.448 4.78588 10.4175 4.77444 10.387 4.77062C10.3565 4.77062 10.326 4.77825 10.2993 4.79733L9.48713 5.43062C9.26596 5.30091 9.02574 5.20553 8.77788 5.13686L8.64823 4.11445C8.64823 4.08393 8.62917 4.05341 8.60629 4.03433C8.58341 4.01526 8.5529 4 8.5224 4L7.48903 4C7.45853 4 7.42802 4.01145 7.40514 4.03052C7.38226 4.04959 7.36701 4.08011 7.3632 4.11063L7.23355 5.13305C6.9857 5.1979 6.74547 5.29709 6.52431 5.4268L5.7121 4.79351C5.68541 4.77444 5.65491 4.76299 5.6244 4.76681C5.5939 4.77062 5.56339 4.78207 5.54051 4.80496L4.80839 5.53362C4.78551 5.55651 4.77407 5.58703 4.77025 5.61755C4.77025 5.64807 4.77788 5.67859 4.79695 5.70529L5.42993 6.51788C5.30028 6.73915 5.20495 6.97949 5.13632 7.22747L4.11439 7.35336C4.08389 7.35336 4.05338 7.37244 4.03431 7.39533C4.01525 7.41822 4 7.44874 4 7.47926L4 8.51311C4 8.54363 4.01144 8.57415 4.0305 8.59704C4.04957 8.61993 4.08007 8.63519 4.11058 8.63901L5.1325 8.7649C5.19733 9.01288 5.29647 9.25322 5.42612 9.47449L4.79313 10.2871C4.77407 10.3138 4.76263 10.3443 4.76644 10.3748C4.76644 10.4053 4.78169 10.4359 4.80457 10.4588L5.5367 11.1912C5.55958 11.2141 5.59008 11.2256 5.62059 11.2294C5.65109 11.2294 5.6816 11.2217 5.70829 11.2027L6.52049 10.5694C6.74165 10.6991 6.98188 10.7983 7.22974 10.8631L7.35939 11.8856C7.3632 11.9161 7.37845 11.9466 7.40133 11.9657C7.42421 11.9847 7.45472 11.9962 7.48522 12L8.51859 12C8.54909 12 8.5796 11.9886 8.60248 11.9695C8.62535 11.9504 8.64061 11.9199 8.64442 11.8894L8.77025 10.867C9.01811 10.8021 9.25834 10.7029 9.4795 10.5732L10.2917 11.2065C10.3184 11.2256 10.3489 11.237 10.3794 11.2332C10.4099 11.2332 10.4404 11.2179 10.4633 11.195L11.1954 10.4626C11.2183 10.4397 11.2297 10.4092 11.2336 10.3786C11.2336 10.3481 11.2259 10.3176 11.2069 10.2909L10.5739 9.4783C10.7035 9.25703 10.8027 9.01669 10.8675 8.76872L11.8894 8.63901C11.9199 8.63519 11.9504 8.61993 11.9695 8.59704C11.9886 8.57415 12 8.54363 12 8.51311L12 7.47926C12 7.44874 11.9886 7.41822 11.9695 7.39533C11.9504 7.37244 11.9199 7.35718 11.8894 7.35336L11.897 7.35718ZM8.00762 9.42489C7.72545 9.42489 7.4509 9.34096 7.2183 9.18455C6.9857 9.02814 6.80267 8.80687 6.6959 8.54745C6.58913 8.28803 6.55862 8.00191 6.61582 7.72723C6.6692 7.45255 6.80648 7.19695 7.00476 6.99857C7.20305 6.80019 7.45472 6.66285 7.73308 6.60944C8.00762 6.55603 8.29361 6.58274 8.5529 6.68956C8.8122 6.79638 9.03336 6.97949 9.1897 7.21221C9.34604 7.44492 9.42993 7.7196 9.42993 8.00191C9.42993 8.37959 9.28122 8.74201 9.0143 9.00525C8.74738 9.27229 8.38512 9.42108 8.01144 9.42108L8.00762 9.42489Z" fill="url(#paint0_linear_2482_206329)" stroke="#8B8B8B" stroke-width="0.75" stroke-linecap="round" stroke-linejoin="round"/>
</g>
<defs>
<linearGradient id="paint0_linear_2482_206329" x1="8" y1="4" x2="8" y2="12" gradientUnits="userSpaceOnUse">
<stop stop-color="#FF6C37"/>
<stop offset="1" stop-color="#FFB400"/>
</linearGradient>
<clipPath id="clip0_2482_206329">
<rect width="16" height="16" fill="white" transform="translate(0 16) rotate(-90)"/>
</clipPath>
</defs>
</svg>
