<svg width="16" height="16" viewBox="0 0 16 16" fill="none" xmlns="http://www.w3.org/2000/svg">
<g clip-path="url(#clip0_2482_206322)">
<mask id="mask0_2482_206322" style="mask-type:luminance" maskUnits="userSpaceOnUse" x="0" y="0" width="16" height="16">
<path d="M16 0H0V16H16V0Z" fill="white"/>
</mask>
<g mask="url(#mask0_2482_206322)">
<path d="M12.56 9.62L14.0967 8.74C14.343 8.5986 14.6353 8.56063 14.9096 8.63433C15.1839 8.70807 15.4177 8.8875 15.56 9.13333V9.15667C15.6916 9.3825 15.7391 9.64763 15.6939 9.9051C15.6488 10.1626 15.5139 10.3958 15.3133 10.5633L12.4566 12.92C12.2862 13.0628 12.0838 13.1623 11.8666 13.21L6.45333 14.4167C6.26817 14.4574 6.07667 14.46 5.89044 14.4245C5.70424 14.389 5.52717 14.316 5.37 14.21L1.99998 11.9667C1.76738 11.8138 1.49499 11.7327 1.21665 11.7333H0.233318V7.50667L2.73332 7.23C3.17429 7.18103 3.6206 7.23583 4.03667 7.39L5.95997 8.1C6.1335 8.166 6.31333 8.21403 6.49667 8.24333L10.0967 8.84C10.3826 8.86097 10.6502 8.9889 10.846 9.19833C11.0418 9.40773 11.1516 9.68327 11.1533 9.97C11.1524 10.2573 11.0431 10.5337 10.8471 10.7438C10.6512 10.9539 10.3832 11.0823 10.0967 11.1033L6.22333 11.38" stroke="#8B8B8B" stroke-width="0.75" stroke-miterlimit="10" stroke-linecap="square"/>
<path d="M11.9666 2.20667H9.3033L7.9733 4.51333L9.3033 6.81667H11.9666L13.2966 4.51333L11.9666 2.20667Z" fill="url(#paint0_linear_2482_206322)" stroke="#8B8B8B" stroke-width="0.75" stroke-miterlimit="10"/>
</g>
</g>
<defs>
<linearGradient id="paint0_linear_2482_206322" x1="10.635" y1="2.20667" x2="10.635" y2="6.81667" gradientUnits="userSpaceOnUse">
<stop stop-color="#FF6C37"/>
<stop offset="1" stop-color="#FFB400"/>
</linearGradient>
<clipPath id="clip0_2482_206322">
<rect width="16" height="16" fill="white"/>
</clipPath>
</defs>
</svg>
