<svg width="140" height="120" viewBox="0 0 140 120" fill="none" xmlns="http://www.w3.org/2000/svg">
<g style="mix-blend-mode:multiply" opacity="0.2">
<path d="M84.47 115.66C84.47 117.14 70.27 118.34 52.75 118.34C35.23 118.34 21.03 117.14 21.03 115.66C21.03 114.92 25.2 114.72 30.9 113.9C31.52 113.81 32.68 117.31 34.83 117.2C36.29 117.12 37.99 117.7 41.48 116.8C43.12 116.37 44.31 112.89 45.09 112.87C48.14 112.79 49.38 112.97 52.75 112.97C54.38 112.97 54.91 113.07 56.47 113.05C57.2 113.04 57.98 116.24 59.33 116.75C60.29 117.12 62.35 118.33 64.86 118.27C66.96 118.21 69.2 115.83 70.26 115.5C70.99 115.27 70.66 113.45 71.46 113.49C80.44 113.97 84.47 114.69 84.47 115.66Z" fill="#262626"/>
</g>
<path d="M57.14 56.61C57.1 56.61 57.06 56.61 57.02 56.6C47.97 54.35 41.4 46.3 41.4 37.45C41.4 26.57 50.27 17.71 61.18 17.71C72.09 17.71 80.96 26.56 80.96 37.45C80.96 45.75 75.14 53.48 66.81 56.25C66.55 56.33 66.26 56.2 66.18 55.93C66.09 55.67 66.23 55.38 66.5 55.3C74.43 52.66 79.97 45.32 79.97 37.45C79.97 27.12 71.54 18.71 61.19 18.71C50.84 18.71 42.41 27.12 42.41 37.45C42.41 45.85 48.66 53.5 57.27 55.63C57.54 55.7 57.7 55.97 57.63 56.24C57.57 56.46 57.36 56.61 57.14 56.61Z" fill="var(--illustration-stroke-color, #686868)"/>
<path d="M64.02 118.7C59.51 118.7 56.35 116.21 55.96 112.35V93.7187C55.96 93.4387 56.18 93.2187 56.46 93.2187C56.74 93.2187 56.96 93.4387 56.96 93.7187V112.3C57.29 115.56 60.07 117.7 64.03 117.7C68.05 117.7 70.83 115.51 71.11 112.13C72.12 100.15 73.74 76.4999 73.26 52.6699C73.25 52.3899 73.47 52.1699 73.75 52.1599C74.01 52.1799 74.25 52.3699 74.26 52.6499C74.74 76.5299 73.11 100.22 72.1 112.22C71.76 116.15 68.59 118.7 64.02 118.7Z" fill="var(--illustration-stroke-color, #686868)"/>
<path d="M38.05 118.19H37.5C34.81 118.19 32.43 117.14 30.97 115.3C29.67 113.67 29.23 111.57 29.74 109.38L37.75 81.6002L38.23 79.2102C38.28 78.9402 38.55 78.7602 38.82 78.8202C39.09 78.8802 39.27 79.1402 39.21 79.4102L38.72 81.8402L30.7 109.63C30.27 111.49 30.64 113.29 31.75 114.67C33.02 116.26 35.12 117.18 37.5 117.18H38.05C41 117.18 43.65 115.31 44.62 112.53L52.41 94.6602C52.47 94.5302 52.57 94.4402 52.7 94.3902L57.51 92.6802C57.77 92.5902 58.06 92.7202 58.15 92.9802C58.24 93.2402 58.11 93.5302 57.85 93.6202L53.25 95.2602L45.56 112.9C44.45 116.05 41.43 118.19 38.05 118.19Z" fill="var(--illustration-stroke-color, #686868)"/>
<path d="M73.92 69.23C73.75 69.23 73.59 69.15 73.5 69C71.13 65.29 70.6001 58.45 70.2601 55.39C70.2001 54.85 70.1401 54.34 70.1101 54.18C70.0601 54.07 70.0401 53.94 70.0801 53.81C70.1601 53.55 70.4401 53.4 70.7001 53.48C71.0601 53.59 71.0601 53.65 71.2501 55.28C71.5901 58.27 72.1 64.95 74.34 68.47C74.49 68.7 74.42 69.01 74.19 69.16C74.1 69.21 74.01 69.23 73.92 69.23Z" fill="var(--illustration-stroke-color, #686868)"/>
<path d="M79.27 69.6501C77.45 69.6501 75.9684 69.5909 73.7984 69.3309C73.5284 69.3009 73.3284 69.051 73.3584 68.771C73.3884 68.501 73.6385 68.3009 73.9185 68.3309C85.5385 69.7209 90.99 66.9101 96.57 63.7301L99.19 61.8901C99.65 61.5201 100.22 61.0201 100.76 60.3601C102.07 58.7401 102.59 56.5401 102.16 54.3201C102.07 53.8501 101.63 52.9901 101.36 52.5701C101.21 52.3401 101.27 52.0301 101.5 51.8801C101.73 51.7301 102.04 51.7901 102.19 52.0201C102.5 52.4901 103.02 53.4801 103.14 54.1301C103.62 56.6401 103.03 59.1401 101.53 60.9901C100.93 61.7301 100.28 62.2801 99.78 62.6901L97.09 64.5801C92.38 67.2801 87.43 69.6501 79.27 69.6501Z" fill="var(--illustration-stroke-color, #686868)"/>
<path d="M82.33 55.13C76.47 55.13 73.05 52.85 72.83 52.7C72.6 52.54 72.55 52.23 72.7 52.01C72.86 51.78 73.17 51.72 73.39 51.88C73.47 51.94 81.75 57.42 94.76 50.9C95.01 50.78 95.31 50.88 95.43 51.12C95.55 51.37 95.45 51.67 95.21 51.79C90.16 54.33 85.81 55.13 82.33 55.13Z" fill="var(--illustration-stroke-color, #686868)"/>
<path d="M42.7 80.07C39.7 80.07 36.74 78.82 34.9 76.73C28.67 69.65 31.88 60.02 44.7 47.29C44.89 47.1 45.21 47.1 45.41 47.29C45.6 47.49 45.6 47.8 45.41 48C33.04 60.28 29.85 69.46 35.65 76.07C37.53 78.21 40.74 79.37 43.81 79.01C45.61 78.8 47.44 78.04 49.11 76.82L64.13 65.99C66.5 64.34 67.45 62.54 67.32 59.99C67.26 58.86 66.93 57.68 66.33 56.48C64.3 53.89 60.32 54.58 57.62 56.6L40.32 67.73C40.09 67.88 39.78 67.81 39.63 67.58C39.48 67.35 39.55 67.04 39.78 66.89L57.05 55.78C60.1 53.5 64.7 52.77 67.17 55.95C67.89 57.36 68.25 58.67 68.32 59.94C68.46 62.84 67.35 64.96 64.71 66.8L49.7 77.63C47.9 78.95 45.9 79.77 43.93 80C43.52 80.05 43.11 80.07 42.7 80.07Z" fill="var(--illustration-stroke-color, #686868)"/>
<path d="M43.8601 64.9201C43.8001 64.9201 43.7401 64.9101 43.6801 64.8901C43.4201 64.7901 43.2901 64.5001 43.3901 64.2501C45.8901 57.6301 42.4801 49.9801 42.4401 49.9001C42.3301 49.6501 42.4401 49.3501 42.6901 49.2401C42.9401 49.1301 43.2401 49.2401 43.3501 49.4901C43.5001 49.8201 46.9701 57.5901 44.3201 64.6101C44.2501 64.8001 44.0601 64.9201 43.8601 64.9201Z" fill="var(--illustration-stroke-color, #686868)"/>
<path d="M48.77 61.9199C48.71 61.9199 48.65 61.9099 48.59 61.8899C48.33 61.7899 48.2 61.4999 48.3 61.2499C49.09 59.1599 48.38 53.8299 47.92 51.5899C47.86 51.3199 48.04 51.0499 48.31 50.9999C48.58 50.9499 48.85 51.1199 48.9 51.3899C49.31 53.3899 50.18 59.1199 49.24 61.6099C49.16 61.7999 48.97 61.9199 48.77 61.9199Z" fill="var(--illustration-stroke-color, #686868)"/>
<g opacity="0.7">
<path opacity="0.9" d="M98.63 53.2901C98.05 53.2901 97.49 53.1701 96.98 52.9601C95.46 52.3201 94.4 50.8201 94.4 49.0701V45.8801H102.86V49.0701C102.86 50.6101 102.03 51.9701 100.79 52.7001C100.16 53.0701 99.42 53.2901 98.63 53.2901Z" fill="url(#paint0_linear_819_804)"/>
</g>
<path d="M98.57 53.87C97.93 53.87 97.31 53.75 96.73 53.5C94.98 52.76 93.84 51.05 93.84 49.15V45.96C93.84 45.68 94.06 45.46 94.34 45.46H102.8C103.08 45.46 103.3 45.68 103.3 45.96V49.15C103.3 50.81 102.41 52.36 100.98 53.21C100.25 53.64 99.42 53.87 98.57 53.87ZM94.84 46.46V49.15C94.84 50.65 95.73 51.99 97.12 52.58C98.19 53.03 99.47 52.95 100.47 52.35C101.6 51.68 102.3 50.46 102.3 49.15V46.46H94.84Z" fill="var(--illustration-stroke-color, #686868)"/>
<path d="M119.27 112.14H110.46C103.51 112.14 97.86 106.5 97.86 99.5701V53.3801C97.86 53.1001 98.08 52.8801 98.36 52.8801C98.64 52.8801 98.86 53.1001 98.86 53.3801V99.5701C98.86 105.95 104.06 111.14 110.46 111.14H119.27C119.55 111.14 119.77 111.36 119.77 111.64C119.77 111.92 119.55 112.14 119.27 112.14Z" fill="var(--illustration-stroke-color, #686868)"/>
<path d="M101.64 46.1001C101.36 46.1001 101.14 45.8801 101.14 45.6001V41.3201H99.8101V45.6001C99.8101 45.8801 99.5901 46.1001 99.3101 46.1001C99.0301 46.1001 98.8101 45.8801 98.8101 45.6001V40.8201C98.8101 40.5401 99.0301 40.3201 99.3101 40.3201H101.64C101.92 40.3201 102.14 40.5401 102.14 40.8201V45.6001C102.14 45.8801 101.92 46.1001 101.64 46.1001Z" fill="var(--illustration-stroke-color, #686868)"/>
<path d="M97.6401 46.1001C97.3601 46.1001 97.1401 45.8801 97.1401 45.6001V41.3201H95.8101V45.6001C95.8101 45.8801 95.5901 46.1001 95.3101 46.1001C95.0301 46.1001 94.8101 45.8801 94.8101 45.6001V40.8201C94.8101 40.5401 95.0301 40.3201 95.3101 40.3201H97.6401C97.9201 40.3201 98.1401 40.5401 98.1401 40.8201V45.6001C98.1401 45.8801 97.9201 46.1001 97.6401 46.1001Z" fill="var(--illustration-stroke-color, #686868)"/>
<path d="M36.31 58.57C36.04 58.57 35.82 58.36 35.81 58.08L35.53 48.4C35.53 46.83 36.8 45.56 38.36 45.56L44.2 45.47C44.51 45.46 44.7 45.69 44.71 45.96C44.71 46.24 44.49 46.46 44.22 46.47L38.37 46.56C37.35 46.56 36.53 47.38 36.53 48.39L36.81 58.05C36.82 58.33 36.6 58.56 36.32 58.56C36.32 58.57 36.32 58.57 36.31 58.57Z" fill="var(--illustration-stroke-color, #686868)"/>
<path d="M49.95 41.53C48.08 41.53 46.57 40.01 46.57 38.15C46.57 36.29 48.09 34.77 49.95 34.77C51.81 34.77 53.33 36.29 53.33 38.15C53.33 40.01 51.82 41.53 49.95 41.53ZM49.95 35.76C48.64 35.76 47.57 36.83 47.57 38.14C47.57 39.45 48.64 40.52 49.95 40.52C51.26 40.52 52.33 39.45 52.33 38.14C52.33 36.83 51.26 35.76 49.95 35.76Z" fill="var(--illustration-stroke-color, #686868)"/>
<path d="M71.03 50.5C67.09 50.5 63.96 49.64 61.7 47.93C58.1 45.21 57.54 41.02 57.23 38.77C57.07 37.57 57.1 35.48 57.82 34.35C59.03 32.43 62.26 29.12 70.29 28.55C74.17 28.27 76.31 28.42 78.63 28.99C78.9 29.06 79 29.6 79 29.6C79 29.6 78.66 30.03 78.39 29.97C76.17 29.42 74.14 29.28 70.36 29.55C62.78 30.1 59.78 33.13 58.67 34.89C58.19 35.65 58.06 37.4 58.22 38.57C58.53 40.9 59.05 44.67 62.31 47.14C65.2 49.33 69.69 50 75.67 49.16C75.94 49.12 76.2 49.31 76.24 49.58C76.28 49.85 76.09 50.11 75.82 50.15C74.1 50.38 72.51 50.5 71.03 50.5Z" fill="var(--illustration-stroke-color, #686868)"/>
<path d="M60.94 18.6101C60.67 18.6101 60.45 18.4001 60.44 18.1301L60.36 15.6201C60.35 15.3401 60.57 15.1101 60.84 15.1001C61.11 15.0801 61.35 15.3101 61.36 15.5801L61.44 18.1001C61.45 18.3801 61.23 18.6101 60.96 18.6201C60.95 18.6101 60.95 18.6101 60.94 18.6101Z" fill="var(--illustration-stroke-color, #686868)"/>
<path d="M60.88 15.93C59.13 15.93 57.7 14.5 57.7 12.73C57.7 10.96 59.13 9.53003 60.88 9.53003C62.63 9.53003 64.06 10.96 64.06 12.73C64.06 14.5 62.63 15.93 60.88 15.93Z" fill="#FF8853"/>
<path d="M60.88 15.93C59.13 15.93 57.7 14.5 57.7 12.73C57.7 10.96 59.13 9.53003 60.88 9.53003C62.63 9.53003 64.06 10.96 64.06 12.73C64.06 14.5 62.63 15.93 60.88 15.93ZM60.88 10.54C59.68 10.54 58.7 11.52 58.7 12.74C58.7 13.96 59.68 14.94 60.88 14.94C62.08 14.94 63.06 13.96 63.06 12.74C63.06 11.52 62.08 10.54 60.88 10.54Z" fill="var(--illustration-stroke-color, #686868)"/>
<defs>
<linearGradient id="paint0_linear_819_804" x1="94.4063" y1="49.5855" x2="102.863" y2="49.5855" gradientUnits="userSpaceOnUse">
<stop stop-color="#FF7002"/>
<stop offset="0.2957" stop-color="#FE7304"/>
<stop offset="0.4996" stop-color="#FC7C0A"/>
<stop offset="0.6759" stop-color="#F88B15"/>
<stop offset="0.8364" stop-color="#F3A125"/>
<stop offset="0.9849" stop-color="#ECBD39"/>
<stop offset="1" stop-color="#EBC03B"/>
</linearGradient>
</defs>
</svg>
