<svg width="443" height="200" viewBox="0 0 443 200" fill="none" xmlns="http://www.w3.org/2000/svg">
<g opacity="0.5">
<mask id="mask0_528_28789" style="mask-type:luminance" maskUnits="userSpaceOnUse" x="24" y="99" width="329" height="93">
<path d="M345 99H32C27.5817 99 24 102.582 24 107V183.449C24 187.867 27.5817 191.449 32 191.449H345C349.418 191.449 353 187.867 353 183.449V107C353 102.582 349.418 99 345 99Z" fill="white"/>
</mask>
<g mask="url(#mask0_528_28789)">
<path d="M345 99H32C27.5817 99 24 102.582 24 107V183.449C24 187.867 27.5817 191.449 32 191.449H345C349.418 191.449 353 187.867 353 183.449V107C353 102.582 349.418 99 345 99Z" fill="white"/>
<mask id="mask1_528_28789" style="mask-type:luminance" maskUnits="userSpaceOnUse" x="24" y="99" width="25" height="37">
<g opacity="0.5">
<path d="M24 99H48.631V135.15H24V99Z" fill="white"/>
</g>
</mask>
<g mask="url(#mask1_528_28789)">
<path d="M48.631 135.15V134.27H24V135.15V136.029H48.631V135.15Z" fill="#EDEDED"/>
</g>
<mask id="mask2_528_28789" style="mask-type:luminance" maskUnits="userSpaceOnUse" x="48" y="99" width="72" height="37">
<g opacity="0.5">
<path d="M48.6309 99H119.445V135.15H48.6309V99Z" fill="white"/>
</g>
</mask>
<g mask="url(#mask2_528_28789)">
<path d="M119.445 135.15V134.27H48.6309V135.15V136.029H119.445V135.15Z" fill="#EDEDED"/>
</g>
<path d="M57.4525 117.398L59.4505 123.44H59.5293L61.5235 117.398H63.053L60.3465 125.075H58.6296L55.9268 117.398H57.4525ZM65.0529 125.191C63.9545 125.191 63.1261 124.591 63.1261 123.459C63.1261 122.162 64.1944 121.829 65.3115 121.709C66.3274 121.6 66.736 121.581 66.736 121.191V121.169C66.736 120.603 66.3911 120.28 65.7614 120.28C65.0979 120.28 64.7155 120.618 64.5805 121.011L63.3135 120.831C63.6134 119.782 64.5431 119.242 65.7539 119.242C66.8522 119.242 68.093 119.699 68.093 121.221V125.075H66.7885V124.284H66.7435C66.4961 124.767 65.9563 125.191 65.0529 125.191ZM65.4052 124.194C66.2224 124.194 66.7398 123.65 66.7398 123.009V122.331C66.5636 122.473 65.8513 122.563 65.4952 122.612C64.8879 122.698 64.4343 122.916 64.4343 123.437C64.4343 123.935 64.8392 124.194 65.4052 124.194ZM69.4575 125.075V119.317H70.7733V120.277H70.8333C71.0432 119.609 71.5942 119.234 72.254 119.234C72.4039 119.234 72.6176 119.249 72.7413 119.272V120.52C72.6251 120.483 72.3402 120.442 72.1115 120.442C71.3656 120.442 70.8145 120.959 70.8145 121.69V125.075H69.4575ZM73.6429 125.075V119.317H74.9999V125.075H73.6429ZM74.3251 118.5C73.8903 118.5 73.5379 118.17 73.5379 117.765C73.5379 117.356 73.8903 117.027 74.3251 117.027C74.7562 117.027 75.1086 117.356 75.1086 117.765C75.1086 118.17 74.7562 118.5 74.3251 118.5ZM78.0522 125.191C76.9538 125.191 76.1254 124.591 76.1254 123.459C76.1254 122.162 77.1938 121.829 78.3108 121.709C79.3267 121.6 79.7353 121.581 79.7353 121.191V121.169C79.7353 120.603 79.3905 120.28 78.7607 120.28C78.0972 120.28 77.7148 120.618 77.5799 121.011L76.3128 120.831C76.6127 119.782 77.5424 119.242 78.7532 119.242C79.8515 119.242 81.0923 119.699 81.0923 121.221V125.075H79.7878V124.284H79.7428C79.4954 124.767 78.9556 125.191 78.0522 125.191ZM78.4046 124.194C79.2218 124.194 79.7391 123.65 79.7391 123.009V122.331C79.5629 122.473 78.8507 122.563 78.4945 122.612C77.8873 122.698 77.4337 122.916 77.4337 123.437C77.4337 123.935 77.8385 124.194 78.4046 124.194ZM82.5168 125.075V117.398H83.8738V120.269H83.93C84.1362 119.853 84.5598 119.242 85.5757 119.242C86.9065 119.242 87.9523 120.284 87.9523 122.203C87.9523 124.1 86.9365 125.176 85.5794 125.176C84.5898 125.176 84.1437 124.588 83.93 124.168H83.8513V125.075H82.5168ZM83.8476 122.196C83.8476 123.313 84.3349 124.063 85.2008 124.063C86.0968 124.063 86.5691 123.276 86.5691 122.196C86.5691 121.124 86.1043 120.355 85.2008 120.355C84.3274 120.355 83.8476 121.079 83.8476 122.196ZM90.463 117.398V125.075H89.106V117.398H90.463ZM94.4075 125.187C92.6719 125.187 91.611 124.036 91.611 122.23C91.611 120.453 92.6869 119.242 94.3363 119.242C95.7532 119.242 96.9678 120.13 96.9678 122.151V122.567H92.9568C92.968 123.553 93.549 124.13 94.4262 124.13C95.011 124.13 95.4608 123.875 95.6445 123.388L96.9116 123.53C96.6717 124.531 95.7495 125.187 94.4075 125.187ZM92.9605 121.652H95.667C95.6595 120.869 95.1347 120.299 94.355 120.299C93.5453 120.299 93.0017 120.918 92.9605 121.652Z" fill="#6B6B6B"/>
<mask id="mask3_528_28789" style="mask-type:luminance" maskUnits="userSpaceOnUse" x="119" y="99" width="79" height="37">
<path d="M119.445 99H197.297V135.15H119.445V99Z" fill="white"/>
</mask>
<g mask="url(#mask3_528_28789)">
<path d="M133.94 118.563V117.398H140.065V118.563H137.692V125.075H136.313V118.563H133.94ZM141.37 127.234C140.999 127.234 140.669 127.167 140.485 127.092L140.8 126.035C141.392 126.207 141.79 126.162 142.041 125.506L142.157 125.195L140.069 119.317H141.508L142.835 123.665H142.895L144.226 119.317H145.669L143.364 125.772C143.038 126.691 142.427 127.234 141.37 127.234ZM146.608 127.234V119.317H147.943V120.269H148.022C148.228 119.853 148.651 119.242 149.667 119.242C150.998 119.242 152.044 120.284 152.044 122.203C152.044 124.1 151.028 125.176 149.671 125.176C148.681 125.176 148.235 124.588 148.022 124.168H147.965V127.234H146.608ZM147.939 122.196C147.939 123.313 148.426 124.063 149.292 124.063C150.188 124.063 150.661 123.276 150.661 122.196C150.661 121.124 150.196 120.355 149.292 120.355C148.419 120.355 147.939 121.079 147.939 122.196ZM155.755 125.187C154.019 125.187 152.959 124.036 152.959 122.23C152.959 120.453 154.034 119.242 155.684 119.242C157.101 119.242 158.315 120.13 158.315 122.151V122.567H154.304C154.316 123.553 154.897 124.13 155.774 124.13C156.359 124.13 156.808 123.875 156.992 123.388L158.259 123.53C158.019 124.531 157.097 125.187 155.755 125.187ZM154.308 121.652H157.015C157.007 120.869 156.482 120.299 155.703 120.299C154.893 120.299 154.349 120.918 154.308 121.652Z" fill="#6B6B6B"/>
</g>
<mask id="mask4_528_28789" style="mask-type:luminance" maskUnits="userSpaceOnUse" x="119" y="99" width="79" height="37">
<g opacity="0.5">
<path d="M119.445 99H197.297V135.15H119.445V99Z" fill="white"/>
</g>
</mask>
<g mask="url(#mask4_528_28789)">
<path d="M119.445 135.15H118.566V136.029H119.445V135.15ZM197.297 135.15V134.27H119.445V135.15V136.029H197.297V135.15ZM119.445 135.15H120.325V99H119.445H118.566V135.15H119.445Z" fill="#EDEDED"/>
</g>
<mask id="mask5_528_28789" style="mask-type:luminance" maskUnits="userSpaceOnUse" x="197" y="99" width="79" height="37">
<path d="M197.297 99H275.148V135.15H197.297V99Z" fill="white"/>
</mask>
<g mask="url(#mask5_528_28789)">
<path d="M213.52 117.398V125.075H212.129V117.398H213.52ZM216.323 121.701V125.075H214.966V119.317H216.263V120.295H216.33C216.592 119.654 217.185 119.242 218.047 119.242C219.235 119.242 220.022 120.029 220.019 121.409V125.075H218.662V121.619C218.662 120.85 218.242 120.389 217.541 120.389C216.825 120.389 216.323 120.869 216.323 121.701ZM221.398 125.075V119.317H222.755V125.075H221.398ZM222.08 118.5C221.646 118.5 221.293 118.17 221.293 117.765C221.293 117.356 221.646 117.027 222.08 117.027C222.512 117.027 222.864 117.356 222.864 117.765C222.864 118.17 222.512 118.5 222.08 118.5ZM227.026 119.317V120.367H225.89V123.343C225.89 123.89 226.164 124.01 226.505 124.01C226.673 124.01 226.827 123.977 226.902 123.958L227.131 125.019C226.985 125.067 226.718 125.142 226.332 125.154C225.313 125.184 224.526 124.651 224.533 123.568V120.367H223.716V119.317H224.533V117.937H225.89V119.317H227.026ZM228.161 125.075V119.317H229.518V125.075H228.161ZM228.843 118.5C228.408 118.5 228.056 118.17 228.056 117.765C228.056 117.356 228.408 117.027 228.843 117.027C229.274 117.027 229.626 117.356 229.626 117.765C229.626 118.17 229.274 118.5 228.843 118.5ZM232.57 125.191C231.472 125.191 230.643 124.591 230.643 123.459C230.643 122.162 231.712 121.829 232.829 121.709C233.845 121.6 234.253 121.581 234.253 121.191V121.169C234.253 120.603 233.908 120.28 233.279 120.28C232.615 120.28 232.233 120.618 232.098 121.011L230.831 120.831C231.131 119.782 232.06 119.242 233.271 119.242C234.369 119.242 235.61 119.699 235.61 121.221V125.075H234.306V124.284H234.261C234.013 124.767 233.474 125.191 232.57 125.191ZM232.922 124.194C233.74 124.194 234.257 123.65 234.257 123.009V122.331C234.081 122.473 233.369 122.563 233.012 122.612C232.405 122.698 231.952 122.916 231.952 123.437C231.952 123.935 232.356 124.194 232.922 124.194ZM238.332 117.398V125.075H236.975V117.398H238.332Z" fill="#6B6B6B"/>
</g>
<mask id="mask6_528_28789" style="mask-type:luminance" maskUnits="userSpaceOnUse" x="197" y="99" width="79" height="37">
<g opacity="0.5">
<path d="M197.297 99H275.148V135.15H197.297V99Z" fill="white"/>
</g>
</mask>
<g mask="url(#mask6_528_28789)">
<path d="M197.297 135.15H196.417V136.029H197.297V135.15ZM275.148 135.15V134.27H197.297V135.15V136.029H275.148V135.15ZM197.297 135.15H198.177V99H197.297H196.417V135.15H197.297Z" fill="#EDEDED"/>
</g>
<mask id="mask7_528_28789" style="mask-type:luminance" maskUnits="userSpaceOnUse" x="275" y="99" width="78" height="37">
<path d="M275.148 99H353V135.15H275.148V99Z" fill="white"/>
</mask>
<g mask="url(#mask7_528_28789)">
<path d="M296.552 119.988H295.15C294.989 119.07 294.258 118.541 293.324 118.541C292.068 118.541 291.184 119.504 291.184 121.236C291.184 122.998 292.076 123.932 293.32 123.932C294.239 123.932 294.974 123.425 295.15 122.526L296.552 122.533C296.338 123.999 295.127 125.18 293.302 125.18C291.277 125.18 289.785 123.714 289.785 121.236C289.785 118.755 291.296 117.293 293.302 117.293C295.004 117.293 296.316 118.282 296.552 119.988ZM301.435 122.653V119.317H302.792V125.075H301.476V124.051H301.417C301.154 124.696 300.547 125.15 299.685 125.15C298.553 125.15 297.765 124.366 297.765 122.983V119.317H299.122V122.773C299.122 123.504 299.557 123.965 300.209 123.965C300.809 123.965 301.435 123.53 301.435 122.653ZM304.188 125.075V119.317H305.503V120.277H305.563C305.773 119.609 306.324 119.234 306.984 119.234C307.134 119.234 307.348 119.249 307.471 119.272V120.52C307.355 120.483 307.07 120.442 306.842 120.442C306.096 120.442 305.545 120.959 305.545 121.69V125.075H304.188ZM308.373 125.075V119.317H309.689V120.277H309.749C309.959 119.609 310.51 119.234 311.17 119.234C311.319 119.234 311.533 119.249 311.657 119.272V120.52C311.541 120.483 311.256 120.442 311.027 120.442C310.281 120.442 309.73 120.959 309.73 121.69V125.075H308.373ZM314.87 125.187C313.135 125.187 312.074 124.036 312.074 122.23C312.074 120.453 313.15 119.242 314.799 119.242C316.216 119.242 317.431 120.13 317.431 122.151V122.567H313.42C313.431 123.553 314.012 124.13 314.889 124.13C315.474 124.13 315.924 123.875 316.107 123.388L317.374 123.53C317.135 124.531 316.212 125.187 314.87 125.187ZM313.423 121.652H316.13C316.122 120.869 315.598 120.299 314.818 120.299C314.008 120.299 313.465 120.918 313.423 121.652ZM319.936 121.701V125.075H318.579V119.317H319.876V120.295H319.943C320.206 119.654 320.798 119.242 321.66 119.242C322.848 119.242 323.636 120.029 323.632 121.409V125.075H322.275V121.619C322.275 120.85 321.855 120.389 321.154 120.389C320.438 120.389 319.936 120.869 319.936 121.701ZM327.887 119.317V120.367H326.751V123.343C326.751 123.89 327.024 124.01 327.365 124.01C327.534 124.01 327.688 123.977 327.763 123.958L327.992 125.019C327.845 125.067 327.579 125.142 327.193 125.154C326.173 125.184 325.386 124.651 325.394 123.568V120.367H324.576V119.317H325.394V117.937H326.751V119.317H327.887Z" fill="#6B6B6B"/>
</g>
<mask id="mask8_528_28789" style="mask-type:luminance" maskUnits="userSpaceOnUse" x="275" y="99" width="78" height="37">
<g opacity="0.5">
<path d="M275.148 99H353V135.15H275.148V99Z" fill="white"/>
</g>
</mask>
<g mask="url(#mask8_528_28789)">
<path d="M275.148 135.15H274.269V136.029H275.148V135.15ZM353 135.15V134.27H275.148V135.15V136.029H353V135.15ZM275.148 135.15H276.028V99H275.148H274.269V135.15H275.148Z" fill="#EDEDED"/>
</g>
<mask id="mask9_528_28789" style="mask-type:luminance" maskUnits="userSpaceOnUse" x="24" y="135" width="25" height="29">
<g opacity="0.5">
<path d="M24 135.15H48.631V163.299H24V135.15Z" fill="white"/>
</g>
</mask>
<g mask="url(#mask9_528_28789)">
<path d="M48.631 163.299V162.42H24V163.299V164.179H48.631V163.299Z" fill="#EDEDED"/>
</g>
<mask id="mask10_528_28789" style="mask-type:luminance" maskUnits="userSpaceOnUse" x="31" y="142" width="15" height="15">
<path d="M41.5938 142.187H34.5563C32.613 142.187 31.0376 143.762 31.0376 145.706V152.743C31.0376 154.687 32.613 156.262 34.5563 156.262H41.5938C43.5371 156.262 45.1125 154.687 45.1125 152.743V145.706C45.1125 143.762 43.5371 142.187 41.5938 142.187Z" fill="white"/>
</mask>
<g mask="url(#mask10_528_28789)">
<path fill-rule="evenodd" clip-rule="evenodd" d="M32.797 142.187C31.8253 142.187 31.0376 142.975 31.0376 143.947V154.503C31.0376 155.474 31.8253 156.262 32.797 156.262H43.3531C44.3248 156.262 45.1125 155.474 45.1125 154.503V143.947C45.1125 142.975 44.3248 142.187 43.3531 142.187H32.797Z" fill="#212121"/>
<path d="M40.7142 146.146L36.9378 149.922L34.9208 147.905L33.6768 149.149L36.9378 152.41L41.9582 147.39L40.7142 146.146Z" fill="white"/>
</g>
<path d="M41.5939 142.627H34.5564C32.856 142.627 31.4775 144.005 31.4775 145.706V152.743C31.4775 154.444 32.856 155.822 34.5564 155.822H41.5939C43.2943 155.822 44.6727 154.444 44.6727 152.743V145.706C44.6727 144.005 43.2943 142.627 41.5939 142.627Z" stroke="white" stroke-width="0.879679"/>
<mask id="mask11_528_28789" style="mask-type:luminance" maskUnits="userSpaceOnUse" x="48" y="135" width="72" height="29">
<g opacity="0.5">
<path d="M48.6309 135.15H119.445V163.299H48.6309V135.15Z" fill="white"/>
</g>
</mask>
<g mask="url(#mask11_528_28789)">
<path d="M119.445 163.299V162.42H48.6309V163.299V164.179H119.445V163.299Z" fill="#EDEDED"/>
</g>
<path d="M88.2161 146.586H55.668V151.864H88.2161V146.586Z" fill="#A6A6A6"/>
<mask id="mask12_528_28789" style="mask-type:luminance" maskUnits="userSpaceOnUse" x="119" y="135" width="79" height="29">
<g opacity="0.5">
<path d="M119.445 135.15H197.297V163.299H119.445V135.15Z" fill="white"/>
</g>
</mask>
<g mask="url(#mask12_528_28789)">
<path d="M119.445 163.299H118.566V164.179H119.445V163.299ZM197.297 163.299V162.42H119.445V163.299V164.179H197.297V163.299ZM119.445 163.299H120.325V135.15H119.445H118.566V163.299H119.445Z" fill="#EDEDED"/>
</g>
<path d="M136.504 153.345C135.064 153.345 134.06 152.19 134.06 150.361C134.06 148.546 135.064 147.392 136.519 147.392C137.644 147.392 137.988 148.082 138.183 148.381H138.258V145.547H139.143V153.225H138.288V152.34H138.183C137.988 152.655 137.614 153.345 136.504 153.345ZM136.624 152.55C137.688 152.55 138.273 151.65 138.273 150.346C138.273 149.056 137.703 148.186 136.624 148.186C135.499 148.186 134.944 149.131 134.944 150.346C134.944 151.575 135.514 152.55 136.624 152.55ZM143.3 153.345C141.636 153.345 140.616 152.16 140.616 150.391C140.616 148.621 141.651 147.392 143.21 147.392C144.41 147.392 145.684 148.126 145.684 150.271V150.646H141.505C141.546 151.879 142.262 152.55 143.3 152.55C143.994 152.55 144.515 152.25 144.74 151.65L145.594 151.89C145.324 152.76 144.47 153.345 143.3 153.345ZM141.505 149.881H144.785C144.785 148.906 144.17 148.186 143.21 148.186C142.198 148.186 141.565 148.985 141.505 149.881ZM149.594 147.467V148.216H148.305V153.225H147.42V148.216H146.49V147.467H147.42V146.672C147.42 145.682 148.215 145.188 149.039 145.188C149.474 145.188 149.744 145.278 149.879 145.338L149.624 146.102C149.534 146.072 149.384 146.012 149.129 146.012C148.545 146.012 148.305 146.312 148.305 146.882V147.467H149.594ZM152.363 153.36C151.269 153.36 150.399 152.715 150.399 151.59C150.399 150.271 151.565 150.035 152.633 149.896C153.683 149.761 154.118 149.798 154.118 149.371V149.341C154.118 148.603 153.717 148.171 152.903 148.171C152.06 148.171 151.599 148.621 151.404 149.041L150.564 148.741C151.014 147.692 152.004 147.392 152.873 147.392C153.608 147.392 155.002 147.602 155.002 149.431V153.225H154.118V152.445H154.073C153.893 152.82 153.368 153.36 152.363 153.36ZM152.498 152.565C153.548 152.565 154.118 151.86 154.118 151.14V150.331C153.968 150.511 152.963 150.616 152.588 150.661C151.899 150.751 151.284 150.96 151.284 151.635C151.284 152.25 151.794 152.565 152.498 152.565ZM160.246 150.87V147.467H161.131V153.225H160.246V152.25H160.186C159.916 152.835 159.346 153.3 158.477 153.3C157.397 153.3 156.617 152.595 156.617 151.125V147.467H157.502V151.065C157.502 151.905 158.027 152.445 158.761 152.445C159.421 152.445 160.246 151.95 160.246 150.87ZM163.636 145.547V153.225H162.751V145.547H163.636ZM167.76 147.467V148.216H166.53V151.575C166.53 152.325 166.905 152.445 167.295 152.445C167.49 152.445 167.61 152.415 167.685 152.4L167.865 153.195C167.745 153.24 167.535 153.3 167.205 153.3C166.456 153.3 165.646 152.82 165.646 151.815V148.216H164.776V147.467H165.646V146.087H166.53V147.467H167.76Z" fill="#212121"/>
<path fill-rule="evenodd" clip-rule="evenodd" d="M183.222 150.362L180.014 147.154L179.392 147.776L183.222 151.606L187.052 147.776L186.43 147.154L183.222 150.362Z" fill="#6B6B6B"/>
<mask id="mask13_528_28789" style="mask-type:luminance" maskUnits="userSpaceOnUse" x="197" y="135" width="79" height="29">
<g opacity="0.5">
<path d="M197.297 135.15H275.148V163.299H197.297V135.15Z" fill="white"/>
</g>
</mask>
<g mask="url(#mask13_528_28789)">
<path d="M197.297 163.299H196.417V164.179H197.297V163.299ZM275.148 163.299V162.42H197.297V163.299V164.179H275.148V163.299ZM197.297 163.299H198.177V135.15H197.297H196.417V163.299H197.297Z" fill="#EDEDED"/>
</g>
<path d="M243.92 146.586H211.372V151.864H243.92V146.586Z" fill="#A6A6A6"/>
<mask id="mask14_528_28789" style="mask-type:luminance" maskUnits="userSpaceOnUse" x="275" y="135" width="78" height="29">
<g opacity="0.5">
<path d="M275.148 135.15H353V163.299H275.148V135.15Z" fill="white"/>
</g>
</mask>
<g mask="url(#mask14_528_28789)">
<path d="M275.148 163.299H274.269V164.179H275.148V163.299ZM353 163.299V162.42H275.148V163.299V164.179H353V163.299ZM275.148 163.299H276.028V135.15H275.148H274.269V163.299H275.148Z" fill="#EDEDED"/>
</g>
<path d="M321.771 146.586H289.223V151.864H321.771V146.586Z" fill="#A6A6A6"/>
<mask id="mask15_528_28789" style="mask-type:luminance" maskUnits="userSpaceOnUse" x="24" y="163" width="329" height="29">
<g opacity="0.5">
<path d="M24 163.299H353V191.449H24V163.299Z" fill="white"/>
</g>
</mask>
<g mask="url(#mask15_528_28789)">
<path d="M353 191.449V190.57H24V191.449V192.329H353V191.449Z" fill="#EDEDED"/>
</g>
<mask id="mask16_528_28789" style="mask-type:luminance" maskUnits="userSpaceOnUse" x="31" y="170" width="15" height="15">
<path d="M41.5938 170.337H34.5563C32.613 170.337 31.0376 171.912 31.0376 173.856V180.893C31.0376 182.837 32.613 184.412 34.5563 184.412H41.5938C43.5371 184.412 45.1125 182.837 45.1125 180.893V173.856C45.1125 171.912 43.5371 170.337 41.5938 170.337Z" fill="white"/>
</mask>
<g mask="url(#mask16_528_28789)">
<path fill-rule="evenodd" clip-rule="evenodd" d="M32.797 170.337C31.8253 170.337 31.0376 171.125 31.0376 172.096V182.652C31.0376 183.624 31.8253 184.412 32.797 184.412H43.3531C44.3248 184.412 45.1125 183.624 45.1125 182.652V172.096C45.1125 171.125 44.3248 170.337 43.3531 170.337H32.797Z" fill="#212121"/>
<path d="M40.7142 174.295L36.9378 178.072L34.9208 176.055L33.6768 177.299L36.9378 180.56L41.9582 175.54L40.7142 174.295Z" fill="white"/>
</g>
<path d="M41.5939 170.777H34.5564C32.856 170.777 31.4775 172.155 31.4775 173.856V180.893C31.4775 182.594 32.856 183.972 34.5564 183.972H41.5939C43.2943 183.972 44.6727 182.594 44.6727 180.893V173.856C44.6727 172.155 43.2943 170.777 41.5939 170.777Z" stroke="white" stroke-width="0.879679"/>
<path d="M88.2161 174.735H55.668V180.013H88.2161V174.735Z" fill="#A6A6A6"/>
<mask id="mask17_528_28789" style="mask-type:luminance" maskUnits="userSpaceOnUse" x="119" y="163" width="79" height="29">
<g opacity="0.5">
<path d="M119.445 163.299H197.297V191.449H119.445V163.299Z" fill="white"/>
</g>
</mask>
<g mask="url(#mask17_528_28789)">
<path d="M119.445 191.449H120.325V163.299H119.445H118.566V191.449H119.445Z" fill="#EDEDED"/>
</g>
<path d="M138.408 176.906L137.614 177.131C137.46 176.734 137.141 176.306 136.369 176.306C135.664 176.306 135.139 176.666 135.139 177.161C135.139 177.603 135.447 177.832 136.129 178.001L136.984 178.211C138.011 178.462 138.513 178.968 138.513 179.77C138.513 180.763 137.602 181.494 136.264 181.494C135.087 181.494 134.281 180.973 134.075 179.995L134.915 179.785C135.072 180.403 135.526 180.715 136.249 180.715C137.074 180.715 137.599 180.31 137.599 179.815C137.599 179.418 137.325 179.14 136.744 179.005L135.784 178.78C134.727 178.533 134.255 178.001 134.255 177.206C134.255 176.231 135.154 175.542 136.369 175.542C137.509 175.542 138.131 176.089 138.408 176.906ZM142.259 181.494C140.595 181.494 139.575 180.31 139.575 178.54C139.575 176.771 140.61 175.542 142.169 175.542C143.369 175.542 144.643 176.276 144.643 178.42V178.795H140.463C140.505 180.029 141.221 180.7 142.259 180.7C142.953 180.7 143.474 180.4 143.698 179.8L144.553 180.04C144.283 180.91 143.429 181.494 142.259 181.494ZM140.463 178.031H143.743C143.743 177.056 143.129 176.336 142.169 176.336C141.157 176.336 140.523 177.135 140.463 178.031ZM148.328 181.494C146.709 181.494 145.719 180.25 145.719 178.525C145.719 176.771 146.754 175.542 148.313 175.542C149.528 175.542 150.442 176.261 150.592 177.341H149.708C149.573 176.816 149.108 176.336 148.328 176.336C147.293 176.336 146.604 177.191 146.604 178.495C146.604 179.83 147.278 180.7 148.328 180.7C149.018 180.7 149.543 180.325 149.708 179.695H150.592C150.442 180.715 149.603 181.494 148.328 181.494ZM151.886 181.374V175.616H152.74V176.486H152.8C153.01 175.916 153.61 175.527 154.3 175.527C154.431 175.527 154.663 175.534 154.764 175.542V176.441C154.704 176.426 154.461 176.381 154.225 176.381C153.385 176.381 152.77 176.951 152.77 177.731V181.374H151.886ZM158.052 181.494C156.388 181.494 155.368 180.31 155.368 178.54C155.368 176.771 156.403 175.542 157.962 175.542C159.162 175.542 160.436 176.276 160.436 178.42V178.795H156.256C156.298 180.029 157.014 180.7 158.052 180.7C158.746 180.7 159.267 180.4 159.491 179.8L160.346 180.04C160.076 180.91 159.222 181.494 158.052 181.494ZM156.256 178.031H159.536C159.536 177.056 158.922 176.336 157.962 176.336C156.95 176.336 156.316 177.135 156.256 178.031ZM164.286 175.616V176.366H163.056V179.725C163.056 180.475 163.431 180.595 163.821 180.595C164.016 180.595 164.136 180.565 164.211 180.55L164.391 181.344C164.271 181.389 164.061 181.449 163.731 181.449C162.981 181.449 162.172 180.97 162.172 179.965V176.366H161.302V175.616H162.172V174.237H163.056V175.616H164.286Z" fill="#212121"/>
<path fill-rule="evenodd" clip-rule="evenodd" d="M183.222 178.512L180.014 175.304L179.392 175.926L183.222 179.756L187.052 175.926L186.43 175.304L183.222 178.512Z" fill="#6B6B6B"/>
<mask id="mask18_528_28789" style="mask-type:luminance" maskUnits="userSpaceOnUse" x="197" y="163" width="79" height="29">
<g opacity="0.5">
<path d="M197.297 163.299H275.148V191.449H197.297V163.299Z" fill="white"/>
</g>
</mask>
<g mask="url(#mask18_528_28789)">
<path d="M197.297 191.449H198.177V163.299H197.297H196.417V191.449H197.297Z" fill="#EDEDED"/>
</g>
<mask id="mask19_528_28789" style="mask-type:luminance" maskUnits="userSpaceOnUse" x="275" y="163" width="78" height="29">
<g opacity="0.5">
<path d="M275.148 163.299H353V191.449H275.148V163.299Z" fill="white"/>
</g>
</mask>
<g mask="url(#mask19_528_28789)">
<path d="M275.148 191.449H276.028V163.299H275.148H274.269V191.449H275.148Z" fill="#EDEDED"/>
</g>
<path d="M291.843 179.965C290.933 179.965 290.194 179.226 290.194 178.316C290.194 177.405 290.933 176.666 291.843 176.666C292.754 176.666 293.493 177.405 293.493 178.316C293.493 179.226 292.754 179.965 291.843 179.965ZM297.08 179.965C296.169 179.965 295.431 179.226 295.431 178.316C295.431 177.405 296.169 176.666 297.08 176.666C297.991 176.666 298.73 177.405 298.73 178.316C298.73 179.226 297.991 179.965 297.08 179.965ZM302.317 179.965C301.406 179.965 300.668 179.226 300.668 178.316C300.668 177.405 301.406 176.666 302.317 176.666C303.228 176.666 303.967 177.405 303.967 178.316C303.967 179.226 303.228 179.965 302.317 179.965ZM307.554 179.965C306.643 179.965 305.905 179.226 305.905 178.316C305.905 177.405 306.643 176.666 307.554 176.666C308.465 176.666 309.203 177.405 309.203 178.316C309.203 179.226 308.465 179.965 307.554 179.965ZM312.791 179.965C311.88 179.965 311.141 179.226 311.141 178.316C311.141 177.405 311.88 176.666 312.791 176.666C313.702 176.666 314.44 177.405 314.44 178.316C314.44 179.226 313.702 179.965 312.791 179.965ZM318.028 179.965C317.117 179.965 316.378 179.226 316.378 178.316C316.378 177.405 317.117 176.666 318.028 176.666C318.939 176.666 319.677 177.405 319.677 178.316C319.677 179.226 318.939 179.965 318.028 179.965ZM323.264 179.965C322.354 179.965 321.615 179.226 321.615 178.316C321.615 177.405 322.354 176.666 323.264 176.666C324.175 176.666 324.914 177.405 324.914 178.316C324.914 179.226 324.175 179.965 323.264 179.965ZM328.501 179.965C327.59 179.965 326.852 179.226 326.852 178.316C326.852 177.405 327.59 176.666 328.501 176.666C329.412 176.666 330.151 177.405 330.151 178.316C330.151 179.226 329.412 179.965 328.501 179.965Z" fill="#A6A6A6"/>
</g>
<path d="M345 98.5602H32.0001C27.3389 98.5602 23.5603 102.339 23.5603 107V183.449C23.5603 188.11 27.3389 191.889 32.0001 191.889H345C349.662 191.889 353.44 188.11 353.44 183.449V107C353.44 102.339 349.662 98.5602 345 98.5602Z" stroke="#A6A6A6" stroke-width="0.879679"/>
</g>
<path d="M360 8.5H18C13.3056 8.5 9.5 12.3056 9.5 17V97C9.5 101.694 13.3056 105.5 18 105.5H360C364.694 105.5 368.5 101.694 368.5 97V17C368.5 12.3056 364.694 8.5 360 8.5Z" fill="white"/>
<path d="M360 8.5H18C13.3056 8.5 9.5 12.3056 9.5 17V97C9.5 101.694 13.3056 105.5 18 105.5H360C364.694 105.5 368.5 101.694 368.5 97V17C368.5 12.3056 364.694 8.5 360 8.5Z" stroke="#A6A6A6"/>
<mask id="mask20_528_28789" style="mask-type:luminance" maskUnits="userSpaceOnUse" x="10" y="9" width="24" height="32">
<path d="M10 9H34V41H10V9Z" fill="white"/>
</mask>
<g mask="url(#mask20_528_28789)">
<path d="M34 41V40H10V41V42H34V41Z" fill="#EDEDED"/>
</g>
<mask id="mask21_528_28789" style="mask-type:luminance" maskUnits="userSpaceOnUse" x="34" y="9" width="163" height="32">
<path d="M34 9H197V41H34V9Z" fill="white"/>
</mask>
<g mask="url(#mask21_528_28789)">
<path d="M197 41V40H34V41V42H197V41Z" fill="#EDEDED"/>
</g>
<path d="M44.0283 20.2727L46.2996 27.142H46.3891L48.6561 20.2727H50.3948L47.3181 29H45.3664L42.2939 20.2727H44.0283ZM52.6682 29.1321C51.4196 29.1321 50.4779 28.4503 50.4779 27.1634C50.4779 25.6889 51.6924 25.3097 52.9623 25.1733C54.1171 25.0497 54.5816 25.0284 54.5816 24.5852V24.5597C54.5816 23.9162 54.1895 23.5497 53.4736 23.5497C52.7194 23.5497 52.2847 23.9332 52.1313 24.3807L50.691 24.1761C51.0319 22.983 52.0887 22.3693 53.4651 22.3693C54.7137 22.3693 56.1242 22.8892 56.1242 24.6193V29H54.6412V28.1009H54.5901C54.3088 28.6506 53.6952 29.1321 52.6682 29.1321ZM53.0688 27.9986C53.9978 27.9986 54.5858 27.3807 54.5858 26.652V25.8807C54.3856 26.0426 53.5759 26.1449 53.1711 26.2003C52.4807 26.2983 51.9651 26.5455 51.9651 27.1378C51.9651 27.7045 52.4253 27.9986 53.0688 27.9986ZM57.6753 29V22.4545H59.1711V23.5455H59.2392C59.4779 22.7869 60.1043 22.3608 60.8543 22.3608C61.0248 22.3608 61.2677 22.3778 61.4083 22.4034V23.8224C61.2762 23.7798 60.9523 23.733 60.6924 23.733C59.8444 23.733 59.2179 24.321 59.2179 25.152V29H57.6753ZM62.4331 29V22.4545H63.9758V29H62.4331ZM63.2087 21.5256C62.7144 21.5256 62.3138 21.1506 62.3138 20.6903C62.3138 20.2259 62.7144 19.8509 63.2087 19.8509C63.6988 19.8509 64.0993 20.2259 64.0993 20.6903C64.0993 21.1506 63.6988 21.5256 63.2087 21.5256ZM67.4456 29.1321C66.197 29.1321 65.2552 28.4503 65.2552 27.1634C65.2552 25.6889 66.4697 25.3097 67.7396 25.1733C68.8944 25.0497 69.3589 25.0284 69.3589 24.5852V24.5597C69.3589 23.9162 68.9669 23.5497 68.251 23.5497C67.4967 23.5497 67.062 23.9332 66.9086 24.3807L65.4683 24.1761C65.8092 22.983 66.866 22.3693 68.2424 22.3693C69.491 22.3693 70.9016 22.8892 70.9016 24.6193V29H69.4186V28.1009H69.3674C69.0862 28.6506 68.4726 29.1321 67.4456 29.1321ZM67.8461 27.9986C68.7751 27.9986 69.3632 27.3807 69.3632 26.652V25.8807C69.1629 26.0426 68.3532 26.1449 67.9484 26.2003C67.2581 26.2983 66.7424 26.5455 66.7424 27.1378C66.7424 27.7045 67.2027 27.9986 67.8461 27.9986ZM72.521 29V20.2727H74.0635V23.5369H74.1274C74.3619 23.0639 74.8433 22.3693 75.9981 22.3693C77.5109 22.3693 78.6998 23.554 78.6998 25.7358C78.6998 27.892 77.545 29.1151 76.0024 29.1151C74.8774 29.1151 74.3703 28.446 74.1274 27.9688H74.0379V29H72.521ZM74.0336 25.7273C74.0336 26.9972 74.5876 27.8494 75.572 27.8494C76.5905 27.8494 77.1274 26.9545 77.1274 25.7273C77.1274 24.5085 76.599 23.6349 75.572 23.6349C74.5791 23.6349 74.0336 24.4574 74.0336 25.7273ZM81.5539 20.2727V29H80.0113V20.2727H81.5539ZM86.0379 29.1278C84.0649 29.1278 82.8589 27.8196 82.8589 25.7656C82.8589 23.7457 84.0819 22.3693 85.9569 22.3693C87.5677 22.3693 88.9484 23.3793 88.9484 25.6761V26.1491H84.3887C84.4015 27.2699 85.062 27.9261 86.0592 27.9261C86.724 27.9261 87.2353 27.6364 87.4441 27.0824L88.8845 27.2443C88.6118 28.3821 87.5635 29.1278 86.0379 29.1278ZM84.393 25.1094H87.4697C87.4613 24.2188 86.8646 23.571 85.9782 23.571C85.0578 23.571 84.4399 24.2741 84.393 25.1094Z" fill="#6B6B6B"/>
<mask id="mask22_528_28789" style="mask-type:luminance" maskUnits="userSpaceOnUse" x="197" y="9" width="171" height="32">
<path d="M197 9H368V41H197V9Z" fill="white"/>
</mask>
<g mask="url(#mask22_528_28789)">
<path d="M197 41H196V42H197V41ZM368 41V40H197V41V42H368V41ZM197 41H198V9H197H196V41H197Z" fill="#EDEDED"/>
</g>
<path d="M215.028 20.2727L217.3 27.142H217.389L219.656 20.2727H221.395L218.318 29H216.366L213.294 20.2727H215.028ZM223.668 29.1321C222.42 29.1321 221.478 28.4503 221.478 27.1634C221.478 25.6889 222.692 25.3097 223.962 25.1733C225.117 25.0497 225.582 25.0284 225.582 24.5852V24.5597C225.582 23.9162 225.19 23.5497 224.474 23.5497C223.719 23.5497 223.285 23.9332 223.131 24.3807L221.691 24.1761C222.032 22.983 223.089 22.3693 224.465 22.3693C225.714 22.3693 227.124 22.8892 227.124 24.6193V29H225.641V28.1009H225.59C225.309 28.6506 224.695 29.1321 223.668 29.1321ZM224.069 27.9986C224.998 27.9986 225.586 27.3807 225.586 26.652V25.8807C225.386 26.0426 224.576 26.1449 224.171 26.2003C223.481 26.2983 222.965 26.5455 222.965 27.1378C222.965 27.7045 223.425 27.9986 224.069 27.9986ZM230.218 20.2727V29H228.675V20.2727H230.218ZM235.976 26.2472V22.4545H237.519V29H236.023V27.8366H235.955C235.657 28.5696 234.966 29.0852 233.986 29.0852C232.699 29.0852 231.804 28.1946 231.804 26.6222V22.4545H233.347V26.3835C233.347 27.2145 233.841 27.7386 234.583 27.7386C235.265 27.7386 235.976 27.2443 235.976 26.2472ZM242.003 29.1278C240.03 29.1278 238.824 27.8196 238.824 25.7656C238.824 23.7457 240.047 22.3693 241.922 22.3693C243.533 22.3693 244.913 23.3793 244.913 25.6761V26.1491H240.354C240.366 27.2699 241.027 27.9261 242.024 27.9261C242.689 27.9261 243.2 27.6364 243.409 27.0824L244.849 27.2443C244.577 28.3821 243.528 29.1278 242.003 29.1278ZM240.358 25.1094H243.435C243.426 24.2188 242.83 23.571 241.943 23.571C241.023 23.571 240.405 24.2741 240.358 25.1094Z" fill="#6B6B6B"/>
<mask id="mask23_528_28789" style="mask-type:luminance" maskUnits="userSpaceOnUse" x="318" y="19" width="12" height="12">
<path d="M330 19H318V31H330V19Z" fill="white"/>
</mask>
<g mask="url(#mask23_528_28789)">
<path fill-rule="evenodd" clip-rule="evenodd" d="M323.25 20.25C321.041 20.25 319.25 22.0409 319.25 24.25C319.25 26.4591 321.041 28.25 323.25 28.25C325.459 28.25 327.25 26.4591 327.25 24.25C327.25 22.0409 325.459 20.25 323.25 20.25ZM318.25 24.25C318.25 21.4886 320.489 19.25 323.25 19.25C326.011 19.25 328.25 21.4886 328.25 24.25C328.25 25.4506 327.827 26.5524 327.121 27.4144L329.604 29.8965L328.896 30.6036L326.414 28.1215C325.552 28.8268 324.451 29.25 323.25 29.25C320.489 29.25 318.25 27.0114 318.25 24.25Z" fill="#6B6B6B"/>
</g>
<path fill-rule="evenodd" clip-rule="evenodd" d="M345 25C345 23.8954 345.895 23 347 23C348.105 23 349 23.8954 349 25C349 26.1046 348.105 27 347 27C345.895 27 345 26.1046 345 25ZM347 24C346.448 24 346 24.4477 346 25C346 25.5523 346.448 26 347 26C347.552 26 348 25.5523 348 25C348 24.4477 347.552 24 347 24Z" fill="#6B6B6B"/>
<path fill-rule="evenodd" clip-rule="evenodd" d="M350 25C350 23.8954 350.895 23 352 23C353.105 23 354 23.8954 354 25C354 26.1046 353.105 27 352 27C350.895 27 350 26.1046 350 25ZM352 24C351.448 24 351 24.4477 351 25C351 25.5523 351.448 26 352 26C352.552 26 353 25.5523 353 25C353 24.4477 352.552 24 352 24Z" fill="#6B6B6B"/>
<path fill-rule="evenodd" clip-rule="evenodd" d="M357 23C355.895 23 355 23.8954 355 25C355 26.1046 355.895 27 357 27C358.105 27 359 26.1046 359 25C359 23.8954 358.105 23 357 23ZM356 25C356 24.4477 356.448 24 357 24C357.552 24 358 24.4477 358 25C358 25.5523 357.552 26 357 26C356.448 26 356 25.5523 356 25Z" fill="#6B6B6B"/>
<mask id="mask24_528_28789" style="mask-type:luminance" maskUnits="userSpaceOnUse" x="10" y="41" width="24" height="32">
<path d="M10 41H34V73H10V41Z" fill="white"/>
</mask>
<g mask="url(#mask24_528_28789)">
<path d="M34 73V72H10V73V74H34V73Z" fill="#EDEDED"/>
</g>
<mask id="mask25_528_28789" style="mask-type:luminance" maskUnits="userSpaceOnUse" x="34" y="41" width="163" height="32">
<path d="M34 41H197V73H34V41Z" fill="white"/>
</mask>
<g mask="url(#mask25_528_28789)">
<path d="M197 73V72H34V73V74H197V73Z" fill="#EDEDED"/>
</g>
<path d="M79 54H42V60H79V54Z" fill="#A6A6A6"/>
<mask id="mask26_528_28789" style="mask-type:luminance" maskUnits="userSpaceOnUse" x="197" y="41" width="171" height="32">
<path d="M197 41H368V73H197V41Z" fill="white"/>
</mask>
<g mask="url(#mask26_528_28789)">
<path d="M197 73H196V74H197V73ZM368 73V72H197V73V74H368V73ZM197 73H198V41H197H196V73H197Z" fill="#EDEDED"/>
</g>
<path d="M250 54H213V60H250V54Z" fill="#A6A6A6"/>
<path d="M332 52C333.358 52 334.323 52.5726 334.962 53.293C335.444 53.8362 335.736 54.4604 335.89 54.9824C336.492 55.0036 337.241 55.2094 337.893 55.623C338.758 56.1726 339.5 57.1189 339.5 58.5361C339.5 59.898 338.976 60.7521 338.307 61.2705C337.666 61.7668 336.937 61.918 336.604 61.9893L336.553 62H327.447L327.396 61.9893C327.063 61.918 326.334 61.7668 325.693 61.2705C325.024 60.7521 324.5 59.898 324.5 58.5361C324.5 57.1189 325.242 56.1726 326.107 55.623C326.759 55.2096 327.507 55.0038 328.109 54.9824C328.263 54.4604 328.556 53.8363 329.038 53.293C329.677 52.5726 330.642 52 332 52Z" fill="#A6A6A6"/>
<path d="M334.854 56.8535L331.5 60.207L329.146 57.8535L329.854 57.1465L331.5 58.793L334.146 56.1465L334.854 56.8535Z" fill="white"/>
<path d="M79 86H42V92H79V86Z" fill="#A6A6A6"/>
<path d="M181 81H173C170.791 81 169 82.7909 169 85V93C169 95.2091 170.791 97 173 97H181C183.209 97 185 95.2091 185 93V85C185 82.7909 183.209 81 181 81Z" fill="#A6A6A6"/>
<path d="M175 90C175.552 90 176 90.4477 176 91C176 91.5523 175.552 92 175 92C174.448 92 174 91.5523 174 91C174 90.4477 174.448 90 175 90Z" fill="white"/>
<path fill-rule="evenodd" clip-rule="evenodd" d="M182.016 86.7061L180.723 87.999H179.516V89.2061L177.978 90.7432C177.981 90.8035 177.984 90.8645 177.984 90.9258C177.984 92.5825 176.641 93.9258 174.984 93.9258C173.328 93.9255 171.985 92.5824 171.984 90.9258C171.984 89.2691 173.328 87.926 174.984 87.9258C175.111 87.9258 175.235 87.9341 175.357 87.9492L179.309 83.999H182.016V86.7061ZM175.67 89.0488C175.456 88.9706 175.226 88.9258 174.984 88.9258C173.88 88.926 172.984 89.8214 172.984 90.9258C172.985 92.0301 173.88 92.9255 174.984 92.9258C176.089 92.9258 176.984 92.0302 176.984 90.9258C176.984 90.7412 176.957 90.5632 176.91 90.3936L177.683 89.6211L177.684 89.623L178.516 88.792V86.999H180.309L181.016 86.292V84.999H179.723L175.67 89.0488Z" fill="white"/>
<mask id="mask27_528_28789" style="mask-type:luminance" maskUnits="userSpaceOnUse" x="197" y="73" width="171" height="32">
<path d="M197 73H368V105H197V73Z" fill="white"/>
</mask>
<g mask="url(#mask27_528_28789)">
<path d="M197 105H198V73H197H196V105H197Z" fill="#EDEDED"/>
</g>
<path d="M216.375 91.3977C215.339 91.3977 214.5 90.5582 214.5 89.5227C214.5 88.4872 215.339 87.6477 216.375 87.6477C217.411 87.6477 218.25 88.4872 218.25 89.5227C218.25 90.5582 217.411 91.3977 216.375 91.3977ZM223.125 91.3977C222.089 91.3977 221.25 90.5582 221.25 89.5227C221.25 88.4872 222.089 87.6477 223.125 87.6477C224.161 87.6477 225 88.4872 225 89.5227C225 90.5582 224.161 91.3977 223.125 91.3977ZM229.875 91.3977C228.839 91.3977 228 90.5582 228 89.5227C228 88.4872 228.839 87.6477 229.875 87.6477C230.911 87.6477 231.75 88.4872 231.75 89.5227C231.75 90.5582 230.911 91.3977 229.875 91.3977ZM236.625 91.3977C235.589 91.3977 234.75 90.5582 234.75 89.5227C234.75 88.4872 235.589 87.6477 236.625 87.6477C237.661 87.6477 238.5 88.4872 238.5 89.5227C238.5 90.5582 237.661 91.3977 236.625 91.3977ZM243.375 91.3977C242.339 91.3977 241.5 90.5582 241.5 89.5227C241.5 88.4872 242.339 87.6477 243.375 87.6477C244.411 87.6477 245.25 88.4872 245.25 89.5227C245.25 90.5582 244.411 91.3977 243.375 91.3977ZM250.125 91.3977C249.089 91.3977 248.25 90.5582 248.25 89.5227C248.25 88.4872 249.089 87.6477 250.125 87.6477C251.161 87.6477 252 88.4872 252 89.5227C252 90.5582 251.161 91.3977 250.125 91.3977ZM256.875 91.3977C255.839 91.3977 255 90.5582 255 89.5227C255 88.4872 255.839 87.6477 256.875 87.6477C257.911 87.6477 258.75 88.4872 258.75 89.5227C258.75 90.5582 257.911 91.3977 256.875 91.3977ZM263.625 91.3977C262.589 91.3977 261.75 90.5582 261.75 89.5227C261.75 88.4872 262.589 87.6477 263.625 87.6477C264.661 87.6477 265.5 88.4872 265.5 89.5227C265.5 90.5582 264.661 91.3977 263.625 91.3977ZM270.375 91.3977C269.339 91.3977 268.5 90.5582 268.5 89.5227C268.5 88.4872 269.339 87.6477 270.375 87.6477C271.411 87.6477 272.25 88.4872 272.25 89.5227C272.25 90.5582 271.411 91.3977 270.375 91.3977ZM277.125 91.3977C276.089 91.3977 275.25 90.5582 275.25 89.5227C275.25 88.4872 276.089 87.6477 277.125 87.6477C278.161 87.6477 279 88.4872 279 89.5227C279 90.5582 278.161 91.3977 277.125 91.3977ZM283.875 91.3977C282.839 91.3977 282 90.5582 282 89.5227C282 88.4872 282.839 87.6477 283.875 87.6477C284.911 87.6477 285.75 88.4872 285.75 89.5227C285.75 90.5582 284.911 91.3977 283.875 91.3977Z" fill="#A6A6A6"/>
<path d="M362.755 150.501C386.088 146.072 432.755 129.244 432.755 97.3581C432.755 65.4724 397.755 57.501 380.255 57.501" stroke="#212121" stroke-width="2"/>
<path d="M392.539 49.7176L379.679 57.1422L387.104 70.002" stroke="#212121" stroke-width="2"/>
</svg>
