<svg width="16" height="16" viewBox="0 0 16 16" fill="none" xmlns="http://www.w3.org/2000/svg">
<path d="M11.1602 6.58138H15.293C15.6835 6.58138 16 6.89794 16 7.28837V11.0528C16 12.4878 14.8367 13.6512 13.4017 13.6512H13.3894C11.9544 13.6514 10.7909 12.4882 10.7907 11.0532V6.95094C10.7907 6.90241 10.8002 6.85435 10.8188 6.80952C10.8374 6.76468 10.8646 6.72394 10.8989 6.68962C10.9332 6.6553 10.9739 6.62808 11.0188 6.60951C11.0636 6.59093 11.1117 6.58138 11.1602 6.58138Z" fill="#5059C9"/>
<path d="M13.9535 5.83725C14.8783 5.83725 15.6279 5.08758 15.6279 4.16281C15.6279 3.23805 14.8783 2.48837 13.9535 2.48837C13.0287 2.48837 12.2791 3.23805 12.2791 4.16281C12.2791 5.08758 13.0287 5.83725 13.9535 5.83725Z" fill="#5059C9"/>
<path d="M8.74419 5.83725C10.08 5.83725 11.1628 4.75439 11.1628 3.41863C11.1628 2.08286 10.08 1 8.74419 1C7.40842 1 6.32556 2.08286 6.32556 3.41863C6.32556 4.75439 7.40842 5.83725 8.74419 5.83725Z" fill="#7B83EB"/>
<path d="M11.9691 6.58138H5.14719C4.76138 6.59094 4.45619 6.91112 4.46512 7.29694V11.5905C4.41125 13.9057 6.24294 15.8271 8.55812 15.8837C10.8733 15.8271 12.705 13.9057 12.6512 11.5905V7.29694C12.6601 6.91112 12.3549 6.59094 11.9691 6.58138Z" fill="#7B83EB"/>
<path opacity="0.1" d="M8.93025 6.58138V12.5981C8.92936 12.7331 8.88862 12.8648 8.81315 12.9766C8.73769 13.0885 8.63085 13.1756 8.50606 13.227C8.42481 13.2614 8.3375 13.2791 8.24931 13.2791H4.7925C4.74412 13.1562 4.6995 13.0334 4.66225 12.907C4.532 12.48 4.46556 12.0361 4.46506 11.5898V7.29581C4.45612 6.91063 4.76081 6.59094 5.146 6.58144L8.93025 6.58138Z" fill="black"/>
<path opacity="0.2" d="M8.55813 6.58138V12.9703C8.55813 13.0584 8.54044 13.1458 8.50606 13.227C8.45468 13.3518 8.36758 13.4586 8.2557 13.5341C8.14382 13.6096 8.01214 13.6503 7.87719 13.6512H4.9675C4.90425 13.5284 4.84469 13.4056 4.79263 13.2791C4.74261 13.1575 4.69913 13.0333 4.66238 12.907C4.53213 12.48 4.46568 12.0361 4.46519 11.5898V7.29581C4.45625 6.91063 4.76094 6.59094 5.14613 6.58144L8.55813 6.58138Z" fill="black"/>
<path opacity="0.2" d="M8.55812 6.58138V12.2261C8.55531 12.6009 8.25213 12.9042 7.87719 12.907H4.66231C4.53206 12.48 4.46562 12.0361 4.46513 11.5898V7.29581C4.45619 6.91063 4.76087 6.59094 5.14606 6.58144L8.55812 6.58138Z" fill="black"/>
<path opacity="0.2" d="M8.18606 6.58138V12.2261C8.18319 12.6009 7.88 12.9042 7.50513 12.907H4.66231C4.53206 12.48 4.46562 12.0361 4.46513 11.5898V7.29581C4.45619 6.91063 4.76087 6.59094 5.14606 6.58144L8.18606 6.58138Z" fill="black"/>
<path opacity="0.1" d="M8.93025 4.65769V5.82975C8.867 5.8335 8.80744 5.83725 8.74419 5.83725C8.68094 5.83725 8.62138 5.8335 8.55813 5.82975C8.43254 5.82143 8.30799 5.80151 8.18606 5.77025C7.81459 5.68228 7.46922 5.50764 7.1782 5.26059C6.88717 5.01355 6.65875 4.70113 6.51163 4.34888C6.46028 4.22887 6.42042 4.10427 6.39256 3.97675H8.24931C8.62475 3.97819 8.92881 4.28219 8.93025 4.65769Z" fill="black"/>
<path opacity="0.2" d="M8.55813 5.02975V5.82975C8.43254 5.82143 8.30799 5.80151 8.18606 5.77025C7.81461 5.68227 7.46925 5.50762 7.17823 5.26058C6.88722 5.01354 6.65881 4.70112 6.51169 4.34888H7.87719C8.25269 4.35025 8.55669 4.65431 8.55813 5.02975Z" fill="black"/>
<path opacity="0.2" d="M8.55813 5.02975V5.82975C8.43254 5.82143 8.30799 5.80151 8.18606 5.77025C7.81461 5.68227 7.46925 5.50762 7.17823 5.26058C6.88722 5.01354 6.65881 4.70112 6.51169 4.34888H7.87719C8.25269 4.35025 8.55669 4.65431 8.55813 5.02975Z" fill="black"/>
<path opacity="0.2" d="M8.18606 5.02975V5.77025C7.81459 5.68228 7.46921 5.50762 7.17819 5.26057C6.88716 5.01351 6.65874 4.70108 6.51163 4.34881H7.50513C7.88063 4.35025 8.18463 4.65431 8.18606 5.02975Z" fill="black"/>
<path d="M0.682063 4.34881H7.50394C7.88069 4.34881 8.18606 4.65419 8.18606 5.03088V11.8528C8.18606 12.2295 7.88069 12.5349 7.504 12.5349H0.682063C0.305375 12.5349 0 12.2295 0 11.8528V5.03094C0 4.65413 0.305375 4.34881 0.682063 4.34881Z" fill="url(#paint0_linear_179_19890)"/>
<path d="M5.888 6.94531H4.52425V10.6588H3.65544V6.94531H2.29806V6.22494H5.888V6.94531Z" fill="white"/>
<defs>
<linearGradient id="paint0_linear_179_19890" x1="142.208" y1="-48.9429" x2="676.404" y2="876.249" gradientUnits="userSpaceOnUse">
<stop stop-color="#5A62C3"/>
<stop offset="0.5" stop-color="#4D55BD"/>
<stop offset="1" stop-color="#3940AB"/>
</linearGradient>
</defs>
</svg>
