<svg width="300" height="300" viewBox="0 0 300 300" fill="none" xmlns="http://www.w3.org/2000/svg">
<path d="M63.0293 189.577C63.0293 206.922 48.8599 221.091 31.5147 221.091C14.1694 221.091 0 206.922 0 189.577C0 172.231 14.1694 158.062 31.5147 158.062H63.0293V189.577Z" fill="#E01E5A"/>
<path d="M78.9088 189.577C78.9088 172.231 93.0782 158.062 110.423 158.062C127.769 158.062 141.938 172.231 141.938 189.577V268.485C141.938 285.831 127.769 300 110.423 300C93.0782 300 78.9088 285.831 78.9088 268.485V189.577Z" fill="#E01E5A"/>
<path d="M110.423 63.0293C93.0782 63.0293 78.9088 48.8599 78.9088 31.5147C78.9088 14.1694 93.0782 0 110.423 0C127.769 0 141.938 14.1694 141.938 31.5147V63.0293H110.423Z" fill="#36C5F0"/>
<path d="M110.423 78.9088C127.769 78.9088 141.938 93.0782 141.938 110.423C141.938 127.769 127.769 141.938 110.423 141.938H31.5147C14.1694 141.938 0 127.769 0 110.423C0 93.0782 14.1694 78.9088 31.5147 78.9088H110.423Z" fill="#36C5F0"/>
<path d="M236.971 110.423C236.971 93.0782 251.14 78.9088 268.485 78.9088C285.831 78.9088 300 93.0782 300 110.423C300 127.769 285.831 141.938 268.485 141.938H236.971V110.423Z" fill="#2EB67D"/>
<path d="M221.091 110.423C221.091 127.769 206.922 141.938 189.577 141.938C172.231 141.938 158.062 127.769 158.062 110.423V31.5147C158.062 14.1694 172.231 0 189.577 0C206.922 0 221.091 14.1694 221.091 31.5147V110.423Z" fill="#2EB67D"/>
<path d="M189.577 236.971C206.922 236.971 221.091 251.14 221.091 268.485C221.091 285.831 206.922 300 189.577 300C172.231 300 158.062 285.831 158.062 268.485V236.971H189.577Z" fill="#ECB22E"/>
<path d="M189.577 221.091C172.231 221.091 158.062 206.922 158.062 189.577C158.062 172.231 172.231 158.062 189.577 158.062H268.485C285.831 158.062 300 172.231 300 189.577C300 206.922 285.831 221.091 268.485 221.091H189.577Z" fill="#ECB22E"/>
</svg>
